<svg width="38" height="38" viewBox="0 0 38 38" fill="none" xmlns="http://www.w3.org/2000/svg">
<path d="M13.6562 22.5625L13.9531 14.8438L21.0781 17.8125V26.7188L14.8438 24.0469L13.6562 22.5625Z" fill="#FFECC8"/>
<path d="M29.0938 23.0375L28.785 14.5469L21.375 17.8125V27.6094L27.8588 24.6703L29.0938 23.0375Z" fill="#EDC57A"/>
<path d="M24.0469 16.9219L20.1875 14.8438L21.9688 13.6562L26.7188 15.7344V21.0781L25.5312 20.4844L24.3438 21.9688L24.0469 16.9219Z" fill="#95E6A8"/>
<path fill-rule="evenodd" clip-rule="evenodd" d="M19.8248 27.0929C20.3176 27.3245 20.846 27.4373 21.3744 27.4373H21.3804C21.9088 27.4373 22.4373 27.3245 22.9301 27.0929L27.7573 24.8307C28.8676 24.3082 29.5801 23.186 29.5801 21.9629V15.4613C29.5801 14.7013 29.1348 14.0067 28.446 13.692L22.6926 11.0676C21.8554 10.6876 20.8994 10.6876 20.0623 11.0676L14.3088 13.692C13.6201 14.0067 13.1748 14.7013 13.1748 15.4613V21.9629C13.1748 23.186 13.8932 24.3142 14.9976 24.8307L19.8248 27.0929ZM20.4363 11.8929L14.7058 14.5068L21.3782 17.633L23.1732 16.7917L19.7251 15.1999C19.5114 15.0989 19.3748 14.8911 19.3748 14.6596C19.3748 14.428 19.5054 14.2143 19.7192 14.1133L21.4589 13.2999C21.8329 13.1218 22.2664 13.1218 22.6404 13.2999L26.673 15.1514L28.0364 14.5124L22.3066 11.8988C21.7129 11.6257 21.0301 11.6257 20.4304 11.8988L20.4363 11.8929ZM25.5984 15.6551L22.2664 14.1252C22.1357 14.0658 21.9814 14.0658 21.8507 14.1252L20.7107 14.6596L24.2417 16.2901L24.8114 16.0239L25.5984 15.6551ZM28.6405 15.2355C28.6571 15.3087 28.6657 15.3844 28.6657 15.4613V21.957C28.6657 22.8298 28.1551 23.6313 27.3654 23.9995L22.5382 26.2617C22.3091 26.368 22.0697 26.4415 21.8265 26.4821V18.429L23.7973 17.5054V22.1648C23.7973 22.3548 23.9161 22.527 24.0942 22.5923C24.1417 22.6101 24.1951 22.622 24.2486 22.622C24.3792 22.622 24.5039 22.5626 24.5929 22.4617L25.7329 21.1198L26.5286 21.4404C26.6651 21.4998 26.8254 21.482 26.9501 21.3989C27.0748 21.3157 27.152 21.1732 27.152 21.0248V15.9331L28.6405 15.2355ZM20.2048 26.2617C20.4344 26.3682 20.6743 26.4418 20.9181 26.4824V18.4235L14.1135 15.2355L14.1023 15.23C14.0859 15.3031 14.0773 15.3786 14.0773 15.4554V21.957C14.0773 22.8298 14.5879 23.6313 15.3776 23.9995L20.2048 26.2617ZM24.7058 20.9298V17.0823L26.2495 16.3579V20.3479L25.7745 20.1579C25.5964 20.0807 25.3826 20.1342 25.2579 20.2826L24.7058 20.9298Z" fill="#444444"/>
<path fill-rule="evenodd" clip-rule="evenodd" d="M22.6532 11.1541C21.841 10.7854 20.9137 10.7854 20.1014 11.1541L14.3482 13.7784M20.0229 10.9811C20.885 10.5898 21.8696 10.5898 22.7317 10.9811L28.4853 13.6055C29.2081 13.9357 29.675 14.6643 29.675 15.4613V21.9629C29.675 23.2229 28.9411 24.3785 27.7976 24.9167L22.9704 27.1789C22.4646 27.4166 21.9223 27.5323 21.3803 27.5323H21.3743C20.8323 27.5323 20.2901 27.4166 19.7843 27.1789L14.9572 24.9168C13.8194 24.3846 13.0797 23.2229 13.0797 21.9629V15.4613C13.0797 14.6643 13.5465 13.9358 14.2692 13.6056L20.0229 10.9811ZM20.3985 11.8089C21.0212 11.5279 21.7296 11.5289 22.3462 11.8125L28.2627 14.5113L26.6733 15.2562L22.5995 13.3857C22.2513 13.2198 21.8478 13.2198 21.4996 13.3857L19.7597 14.1992C19.5801 14.2841 19.4697 14.4639 19.4697 14.6596C19.4697 14.8525 19.5833 15.0277 19.7653 15.1138L23.3984 16.791L21.3781 17.7379L14.4793 14.5057L20.3968 11.8065L20.3985 11.8089ZM21.8113 14.0387C21.9669 13.968 22.15 13.968 22.3056 14.0387L25.824 15.6542L24.8516 16.1099L24.2419 16.3949L20.4854 14.6602L21.8103 14.0392L21.8113 14.0387ZM14.036 15.0917L14.1545 15.1498L21.013 18.3631V26.5946L20.9024 26.5761C20.6502 26.5341 20.4021 26.458 20.1647 26.3478L15.3373 24.0856C14.5142 23.7018 13.9822 22.8666 13.9822 21.957V15.4554C13.9822 15.3715 13.9916 15.289 14.0095 15.2091L14.036 15.0917ZM28.7071 15.0993L28.7331 15.2146C28.7512 15.2946 28.7606 15.3773 28.7606 15.4613V21.957C28.7606 22.8667 28.2286 23.7018 27.4054 24.0856L22.5784 26.3477C22.3415 26.4576 22.0937 26.5338 21.8421 26.5758L21.7314 26.5943V18.3686L23.8922 17.3559V22.1648C23.8922 22.3155 23.9866 22.4517 24.1268 22.5031C24.1659 22.5178 24.2086 22.527 24.2485 22.527C24.3496 22.527 24.4487 22.481 24.521 22.3995L25.7048 21.0061L26.564 21.3523L26.5663 21.3533C26.6716 21.3991 26.798 21.3861 26.8973 21.3198C26.9961 21.254 27.0569 21.1409 27.0569 21.0248V15.8727L28.7071 15.0993ZM26.3444 16.2084V20.4882L25.7391 20.2461L25.7366 20.2451C25.5982 20.1851 25.429 20.2265 25.3306 20.3437L24.6107 21.1875V17.0219L26.3444 16.2084Z" fill="#444444"/>
<path fill-rule="evenodd" clip-rule="evenodd" d="M13.6563 16.4766C13.6563 16.7225 13.4569 16.9219 13.2109 16.9219L8.16406 16.9219C7.91812 16.9219 7.71875 16.7225 7.71875 16.4766C7.71875 16.2306 7.91812 16.0312 8.16406 16.0312L13.2109 16.0312C13.4569 16.0312 13.6563 16.2306 13.6563 16.4766Z" fill="#444444"/>
<path fill-rule="evenodd" clip-rule="evenodd" d="M13.7513 16.4766C13.7513 16.775 13.5094 17.0169 13.211 17.0169L8.16416 17.0169C7.86575 17.0169 7.62384 16.775 7.62384 16.4766C7.62384 16.1782 7.86575 15.9363 8.16416 15.9363L13.211 15.9363C13.5094 15.9363 13.7513 16.1782 13.7513 16.4766ZM13.211 16.8269C13.4045 16.8269 13.5613 16.67 13.5613 16.4766C13.5613 16.2831 13.4045 16.1263 13.211 16.1263L8.16416 16.1263C7.97068 16.1263 7.81384 16.2831 7.81384 16.4766C7.81384 16.67 7.97068 16.8269 8.16416 16.8269L13.211 16.8269Z" fill="#444444"/>
<path fill-rule="evenodd" clip-rule="evenodd" d="M13.6563 21.8203C13.6563 22.0663 13.4569 22.2656 13.2109 22.2656L5.78906 22.2656C5.54312 22.2656 5.34375 22.0663 5.34375 21.8203C5.34375 21.5744 5.54312 21.375 5.78906 21.375L13.2109 21.375C13.4569 21.375 13.6563 21.5744 13.6563 21.8203Z" fill="#444444"/>
<path fill-rule="evenodd" clip-rule="evenodd" d="M13.7513 21.8203C13.7513 22.1187 13.5094 22.3606 13.211 22.3606L5.78916 22.3606C5.49075 22.3606 5.24884 22.1187 5.24884 21.8203C5.24884 21.5219 5.49075 21.28 5.78916 21.28L13.211 21.28C13.5094 21.28 13.7513 21.5219 13.7513 21.8203ZM13.211 22.1706C13.4045 22.1706 13.5613 22.0138 13.5613 21.8203C13.5613 21.6268 13.4045 21.47 13.211 21.47L5.78916 21.47C5.59568 21.47 5.43884 21.6268 5.43884 21.8203C5.43884 22.0138 5.59568 22.1706 5.78916 22.1706L13.211 22.1706Z" fill="#444444"/>
<path fill-rule="evenodd" clip-rule="evenodd" d="M13.6563 19.1484C13.6563 19.3944 13.4569 19.5937 13.2109 19.5937L10.5391 19.5937C10.2931 19.5937 10.0938 19.3944 10.0938 19.1484C10.0938 18.9025 10.2931 18.7031 10.5391 18.7031L13.2109 18.7031C13.4569 18.7031 13.6563 18.9025 13.6563 19.1484Z" fill="#444444"/>
<path fill-rule="evenodd" clip-rule="evenodd" d="M13.7513 19.1484C13.7513 19.4468 13.5094 19.6888 13.211 19.6888L10.5392 19.6888C10.2407 19.6888 9.99884 19.4468 9.99884 19.1484C9.99884 18.85 10.2407 18.6081 10.5392 18.6081L13.211 18.6081C13.5094 18.6081 13.7513 18.85 13.7513 19.1484ZM13.211 19.4988C13.4045 19.4988 13.5613 19.3419 13.5613 19.1484C13.5613 18.955 13.4045 18.7981 13.211 18.7981L10.5392 18.7981C10.3457 18.7981 10.1888 18.955 10.1888 19.1484C10.1888 19.3419 10.3457 19.4988 10.5392 19.4988L13.211 19.4988Z" fill="#444444"/>
<path fill-rule="evenodd" clip-rule="evenodd" d="M9.20312 19.1484C9.20312 19.3944 9.00375 19.5938 8.75781 19.5938H8.46094C8.215 19.5938 8.01562 19.3944 8.01562 19.1484C8.01562 18.9025 8.215 18.7031 8.46094 18.7031H8.75781C9.00375 18.7031 9.20312 18.9025 9.20312 19.1484Z" fill="#444444"/>
<path fill-rule="evenodd" clip-rule="evenodd" d="M9.29822 19.1484C9.29822 19.4468 9.05631 19.6888 8.75791 19.6888H8.46103C8.16262 19.6888 7.92072 19.4468 7.92072 19.1484C7.92072 18.85 8.16262 18.6081 8.46103 18.6081H8.75791C9.05631 18.6081 9.29822 18.85 9.29822 19.1484ZM8.75791 19.4988C8.95138 19.4988 9.10822 19.3419 9.10822 19.1484C9.10822 18.955 8.95138 18.7981 8.75791 18.7981H8.46103C8.26756 18.7981 8.11072 18.955 8.11072 19.1484C8.11072 19.3419 8.26756 19.4988 8.46103 19.4988H8.75791Z" fill="#444444"/>
</svg>
