<svg width="141" height="20" viewBox="0 0 141 20" fill="none" xmlns="http://www.w3.org/2000/svg">
<path d="M15.4348 4.42285C14.7927 3.62298 13.9758 2.97628 13.0058 2.50131C12.0373 2.02789 10.8723 1.78809 9.54638 1.78809C8.3783 1.78809 7.29995 2.00933 6.34073 2.44407C5.38151 2.87881 4.54296 3.48065 3.84985 4.23255C3.15673 4.98446 2.61059 5.87715 2.22381 6.88588C1.83703 7.89461 1.64209 8.97915 1.64209 10.107V10.1673C1.64209 11.3942 1.8525 12.5236 2.26868 13.5215C2.68486 14.5194 3.27122 15.3982 4.01384 16.13C4.75492 16.8618 5.64916 17.4327 6.66717 17.8287C7.68673 18.2248 8.80685 18.4259 9.9966 18.4259C11.4416 18.4259 12.7165 18.1598 13.7871 17.6369C14.901 17.0908 15.6823 16.4843 16.6632 15.6024L14.2249 13.2214C13.326 13.7969 12.7072 14.2146 12.1146 14.4699C11.5112 14.7314 10.8197 14.8629 10.0554 14.8629C9.02964 14.8629 8.15706 14.5921 7.46085 14.0584C6.76464 13.5246 6.3005 12.7232 6.07926 11.6773L6.06688 11.6216H17.2743C17.2929 11.4159 17.3052 11.2194 17.3145 11.0368C17.3238 10.8388 17.33 10.6485 17.33 10.469C17.33 9.33808 17.1737 8.23807 16.8674 7.19995C16.5611 6.16182 16.0799 5.2289 15.4363 4.42749L15.4348 4.42285ZM6.01119 8.86311L6.02047 8.80896C6.20148 7.76465 6.59446 6.91992 7.18701 6.29642C7.7842 5.66984 8.57788 5.35267 9.54638 5.35267C10.5149 5.35267 11.3039 5.67602 11.8918 6.31189C12.4751 6.94622 12.8433 7.78631 12.9841 8.81051L12.9918 8.86311H6.01119Z" fill="#394655"/>
<path d="M29.6845 14.1189C29.1152 14.4314 28.4422 14.5892 27.6841 14.5892C27.0652 14.5892 26.4974 14.4716 25.9977 14.2396C25.4995 14.009 25.0632 13.6872 24.7028 13.2834C24.3438 12.8812 24.0653 12.4031 23.875 11.8585C23.6863 11.3186 23.5904 10.7276 23.5904 10.1041V10.0437C23.5904 9.44036 23.6863 8.86482 23.875 8.33416C24.0638 7.80195 24.3376 7.32698 24.6873 6.92472C25.0369 6.52247 25.4531 6.20067 25.9219 5.97014C26.3922 5.73807 26.9244 5.62049 27.5046 5.62049C28.3215 5.62049 29.0162 5.78449 29.5669 6.10629C30.1007 6.41881 30.6283 6.84427 31.1342 7.3672L33.8386 4.43694C33.0975 3.62005 32.2311 2.96871 31.2626 2.49993C30.2817 2.02651 29.027 1.78516 27.534 1.78516C26.3164 1.78516 25.187 2.0064 24.1752 2.44114C23.1634 2.87588 22.283 3.47772 21.5574 4.22962C20.8318 4.98153 20.2532 5.87422 19.8417 6.88295C19.4301 7.89168 19.2197 8.97467 19.2197 10.1025V10.1629C19.2197 11.2907 19.4286 12.3691 19.8417 13.367C20.2548 14.3664 20.8318 15.2498 21.5574 15.9909C22.2846 16.7335 23.1665 17.3292 24.1767 17.7639C25.1886 18.1987 26.2978 18.4199 27.4768 18.4199C29.0471 18.4199 30.342 18.1445 31.3229 17.6015C32.293 17.0631 33.1702 16.3669 33.9298 15.5299L31.3446 12.8951C30.8015 13.3995 30.243 13.811 29.6876 14.1158L29.6845 14.1189Z" fill="#394655"/>
<path d="M49.1351 4.19061C48.4033 3.44954 47.5214 2.85854 46.5127 2.43153C45.5039 2.00607 44.3962 1.79102 43.2173 1.79102C42.0384 1.79102 40.9012 2.01226 39.8941 2.447C38.8869 2.88174 37.9988 3.48358 37.2577 4.23548C36.5151 4.98893 35.9272 5.87699 35.511 6.87334C35.0933 7.87124 34.8813 8.95887 34.8813 10.1084V10.1687C34.8813 11.3182 35.0933 12.4059 35.511 13.4038C35.9272 14.4017 36.5105 15.2835 37.2438 16.0277C37.9772 16.7703 38.859 17.3613 39.8662 17.7868C40.8734 18.2123 41.9827 18.4273 43.1616 18.4273C44.3405 18.4273 45.4776 18.2061 46.4848 17.7713C47.492 17.3366 48.3801 16.7347 49.1211 15.9828C49.8622 15.2325 50.4501 14.3444 50.8694 13.345C51.2871 12.3455 51.4991 11.2579 51.4991 10.1099V10.0496C51.4991 8.90317 51.2871 7.81554 50.8694 6.81455C50.4501 5.8151 49.8669 4.93324 49.1366 4.19061H49.1351ZM47.2692 10.1687C47.2692 10.7706 47.1764 11.3445 46.9923 11.8768C46.8082 12.4105 46.539 12.8839 46.1909 13.2862C45.8412 13.69 45.4142 14.0118 44.9222 14.2423C44.4287 14.4744 43.8547 14.592 43.2173 14.592C42.5799 14.592 42.0337 14.4697 41.5402 14.2268C41.0467 13.9855 40.6104 13.6544 40.2437 13.2413C39.8755 12.8282 39.5924 12.3502 39.399 11.818C39.2056 11.2873 39.1081 10.7118 39.1081 10.1084V10.048C39.1081 9.44467 39.2009 8.87068 39.385 8.33847C39.5676 7.80626 39.8384 7.33284 40.1865 6.92903C40.5346 6.52678 40.9616 6.20498 41.4551 5.97291C41.9486 5.74084 42.5226 5.62326 43.16 5.62326C43.7603 5.62326 44.3188 5.74548 44.8217 5.98683C45.3229 6.22818 45.7639 6.55927 46.1336 6.97235C46.5018 7.38544 46.785 7.86505 46.9784 8.39571C47.1718 8.92947 47.2692 9.50501 47.2692 10.1053V10.1656V10.1687Z" fill="#394655"/>
<path d="M60.0701 5.07752H61.8267V12.5847C61.235 12.6032 60.6433 12.6216 60.0701 12.6401V5.07752ZM64.175 5.07752H65.6358V3.11753H56.2426V5.07752H57.7034V12.6956C57.0377 12.6956 56.3905 12.6956 55.7988 12.6956L56.0577 14.6926C58.9607 14.6926 62.8252 14.6186 66.283 14.0084L66.135 12.2334C65.5063 12.3258 64.8407 12.3628 64.175 12.4183V5.07752ZM71.8301 7.98053H69.3524V1.56432H66.9116V18.5941H69.3524V9.996H71.8301V7.98053Z" fill="#394655"/>
<path d="M86.7135 10.3288H77.2279V8.4243H86.1958V6.53827H77.2279V4.74469H86.5841V2.7847H74.7502V12.2518H86.7135V10.3288ZM72.9381 14.6371V16.6156H88.3592V14.6371H72.9381Z" fill="#394655"/>
<path d="M93.1468 3.3579H90.7245V14.6186H92.1668C94.6815 14.6186 97.2702 14.4707 100.025 13.916L99.7479 11.919C97.4736 12.3628 95.2917 12.5292 93.1468 12.5847V3.3579ZM101.708 1.52734V6.79714H97.1222V8.77562H101.708V18.6311H104.149V1.52734H101.708Z" fill="#394655"/>
<path d="M112.113 12.6032H109.931V8.79412H112.113V12.6032ZM112.113 6.88959H109.931V3.04357H107.638V14.5447H114.35V3.04357H112.113V6.88959ZM119.454 1.52734V8.036H118.03V1.8047H115.756V17.8175H118.03V9.996H119.454V18.5571H121.765V1.52734H119.454Z" fill="#394655"/>
<path d="M138.627 6.6862C134.781 6.22393 132.987 4.3379 132.987 2.35942V1.86017H130.491V2.35942C130.491 4.28243 128.661 6.22393 124.852 6.6862L125.739 8.59072C128.587 8.16544 130.658 6.96355 131.73 5.29941C132.802 6.98204 134.873 8.16544 137.739 8.59072L138.627 6.6862ZM131.73 16.7635C129.437 16.7635 128.291 16.3937 128.291 15.5616C128.291 14.7111 129.437 14.3598 131.73 14.3598C134.023 14.3598 135.169 14.7111 135.169 15.5616C135.169 16.3937 134.023 16.7635 131.73 16.7635ZM131.73 12.5292C128.032 12.5292 125.832 13.6201 125.832 15.5616C125.832 17.5031 128.032 18.5756 131.73 18.5756C135.428 18.5756 137.647 17.5031 137.647 15.5616C137.647 13.6201 135.428 12.5292 131.73 12.5292ZM132.969 9.66317V7.59223H130.528V9.66317H124.075V11.6047H139.459V9.66317H132.969Z" fill="#394655"/>
</svg>
