<svg width="34" height="34" viewBox="0 0 34 34" fill="none" xmlns="http://www.w3.org/2000/svg">
<circle cx="17" cy="18" r="13" fill="white" stroke="#333333" stroke-width="1.5"/>
<path d="M4 19.5676L5 12.0676C8.6 6.4676 14.1667 5.0676 16.5 5.0676C18.1667 4.73427 22.7 5.4676 27.5 11.0676C32.3 16.6676 29.8333 22.0676 28 24.0676L26.5 22.5676L25 18.0676C22.3333 18.4009 16.9 19.0676 16.5 19.0676C16.1 19.0676 13.6667 21.4009 12.5 22.5676L7.5 27.0676L5.5 24.0676L4 19.5676Z" fill="#CEF0EC"/>
<circle cx="17" cy="18" r="13" stroke="#333333" stroke-width="1.5"/>
<mask id="mask0_1429_392" style="mask-type:alpha" maskUnits="userSpaceOnUse" x="4" y="5" width="26" height="26">
<circle cx="17" cy="18" r="13" fill="#F7FAFA"/>
</mask>
<g mask="url(#mask0_1429_392)">
<path fill-rule="evenodd" clip-rule="evenodd" d="M20.1247 12.3271C17.0644 11.2426 14.4628 12.2013 12.6218 12.8797L12.6016 12.8871C10.492 13.6645 8.08361 13.7434 6.77802 13.6679C6.63402 13.6596 6.50641 13.7278 6.43806 13.8324C6.36746 13.9405 6.36289 14.0852 6.46304 14.2047C6.74971 14.5468 7.16371 14.7801 7.6443 14.9463C8.12516 15.1126 8.68001 15.2141 9.25614 15.2877C9.68356 15.3424 10.1262 15.3821 10.5613 15.4211C10.7123 15.4346 10.8624 15.4481 11.0107 15.462C11.5879 15.5165 12.1376 15.5787 12.6142 15.6837C13.3547 15.8468 13.9764 16.4706 14.4661 17.2411C14.9538 18.0085 15.2986 18.9029 15.4919 19.5735C15.5577 19.8016 15.8079 19.9241 16.0284 19.8366C19.8182 18.3334 23.6449 19.4877 25.489 20.4556C25.7488 20.5919 26.0837 20.4104 26.0682 20.1007C25.8802 16.3649 23.6799 13.5869 20.1247 12.3271ZM15.5914 20.2041C15.5718 20.0297 15.4294 19.8986 15.2568 19.9058C13.2818 19.9887 8.93846 21.9338 5.45353 29.2307C2.19696 36.0494 4.8022 43.032 7.01668 46.5299C7.12594 46.7024 7.32533 46.7121 7.47307 46.6501C7.62069 46.5882 7.75917 46.4386 7.74474 46.2398C7.57486 43.8997 7.7897 38.7475 11.5318 33.0451C15.3071 27.2922 15.821 22.2451 15.5914 20.2041ZM26.0011 20.5371C25.8916 20.4792 25.7779 20.4964 25.7022 20.5754C25.6305 20.6503 25.6069 20.7659 25.6363 20.8799C26.2669 23.3277 26.8678 27.2799 26.7272 31.6166C26.5865 35.9537 25.7043 40.6681 23.3753 44.6466C23.2922 44.7886 23.3129 44.9482 23.3947 45.0562C23.4773 45.1654 23.6227 45.2216 23.7752 45.1579C26.2204 44.1364 30.3763 41.0968 31.7243 35.1142C32.5821 31.3077 31.5804 27.8905 30.1537 25.3152C29.4403 24.0275 28.6198 22.9487 27.8702 22.1349C27.1221 21.3227 26.4399 20.7692 26.0011 20.5371ZM10.0806 49.2049C10.6897 48.1775 11.8165 46.9411 13.3768 46.9989C14.4416 47.0383 15.1962 47.3158 15.7102 47.7541C16.2246 48.1929 16.4876 48.7842 16.5854 49.4309C16.6475 49.8413 16.3026 50.1664 15.9076 50.1664H10.6738C10.4209 50.1664 10.2068 50.04 10.0885 49.8556C9.96948 49.67 9.94891 49.427 10.0806 49.2049ZM21.1093 47.0009C19.549 46.9431 18.4221 48.1796 17.8131 49.2069C17.6814 49.429 17.7019 49.672 17.821 49.8576C17.9392 50.042 18.1534 50.1685 18.4063 50.1685H23.64C24.0351 50.1685 24.38 49.8433 24.3179 49.4329C24.2201 48.7862 23.9571 48.1949 23.4426 47.7561C22.9287 47.3178 22.174 47.0404 21.1093 47.0009Z" fill="#333333"/>
<circle cx="17.3379" cy="15.1882" r="0.8125" fill="white"/>
</g>
</svg>
