<svg width="35" height="25" viewBox="0 0 35 25" fill="none" xmlns="http://www.w3.org/2000/svg">
<path d="M12.2041 17.1178L12.6291 6.06836L22.8286 10.3182V23.0675L13.904 19.2427L12.2041 17.1178Z" fill="#FFECC8"/>
<path d="M34.3037 17.797L33.8617 5.64258L23.2542 10.3174V24.3417L32.5358 20.1344L34.3037 17.797Z" fill="#EDC57A"/>
<path d="M27.0784 9.04294L21.5537 6.06808L24.1036 4.36816L30.9033 7.34302V14.9927L29.2033 14.1427L27.5034 16.2676L27.0784 9.04294Z" fill="#95E6A8"/>
<path d="M27.3676 17.2035C27.2912 17.2035 27.2147 17.1865 27.1467 17.161C26.8917 17.0675 26.7217 16.821 26.7217 16.549V8.84841C26.7217 8.59342 26.8662 8.36393 27.0957 8.26194L30.606 6.62152C30.81 6.52802 31.0395 6.54502 31.2265 6.66402C31.4135 6.78301 31.524 6.987 31.524 7.21649V14.9171C31.524 15.1296 31.4135 15.3336 31.235 15.4526C31.0565 15.5716 30.827 15.5971 30.6315 15.5121L29.4925 15.0531L27.8606 16.974C27.7331 17.1185 27.5546 17.2035 27.3676 17.2035ZM28.0221 9.26489V14.7811L28.8126 13.8547C28.9911 13.6422 29.2971 13.5657 29.552 13.6762L30.232 13.9482V8.23644L28.0221 9.27339V9.26489Z" fill="#2D3E52"/>
<path d="M23.2536 24.0962C22.4971 24.0962 21.7406 23.9347 21.0352 23.6033L14.125 20.3649C12.5441 19.6255 11.5156 18.0105 11.5156 16.2596V6.95256C11.5156 5.86461 12.1531 4.87016 13.139 4.41968L21.3752 0.662863C22.5736 0.118889 23.942 0.118889 25.1405 0.662863L33.3766 4.41968C34.3625 4.87016 35 5.86461 35 6.95256V16.2596C35 18.0105 33.9801 19.617 32.3906 20.3649L25.4805 23.6033C24.775 23.9347 24.0185 24.0962 23.2621 24.0962H23.2536ZM21.9106 1.84431L13.6745 5.60113C13.1475 5.83912 12.8076 6.36609 12.8076 6.94406V16.2511C12.8076 17.5006 13.5385 18.648 14.669 19.175L21.5791 22.4133C22.6416 22.9063 23.857 22.9063 24.9195 22.4133L31.8297 19.175C32.9601 18.648 33.6911 17.5006 33.6911 16.2511V6.95256C33.6911 6.37459 33.3511 5.84762 32.8241 5.60963L24.588 1.85281C23.738 1.46183 22.7606 1.46183 21.9021 1.85281L21.9106 1.84431Z" fill="#2D3E52"/>
<path d="M23.2551 11.4307C23.1616 11.4307 23.0681 11.4137 22.9831 11.3712L12.8601 6.62839C12.5371 6.4754 12.3926 6.09292 12.5456 5.76144C12.6986 5.43845 13.0896 5.29396 13.4125 5.44695L23.5356 10.1897C23.8585 10.3427 24.003 10.7252 23.85 11.0567C23.7395 11.2947 23.5016 11.4307 23.2636 11.4307H23.2551Z" fill="#2D3E52"/>
<path d="M23.2541 11.4308C23.0076 11.4308 22.7781 11.2948 22.6677 11.0568C22.5147 10.7338 22.6592 10.3428 22.9821 10.1898L33.1562 5.42156C33.4791 5.26857 33.8701 5.41306 34.0231 5.73605C34.1761 6.05903 34.0316 6.45001 33.7086 6.603L23.5346 11.3713C23.4496 11.4138 23.3476 11.4308 23.2626 11.4308H23.2541Z" fill="#2D3E52"/>
<path d="M23.2541 23.5007C22.8971 23.5007 22.5996 23.2117 22.5996 22.8548V10.7768C22.5996 10.4198 22.8886 10.1309 23.2541 10.1309C23.6196 10.1309 23.9 10.4198 23.9 10.7768V22.8548C23.9 23.2117 23.6111 23.5007 23.2541 23.5007Z" fill="#2D3E52"/>
<path d="M27.3688 9.50196C27.2753 9.50196 27.1818 9.48496 27.0968 9.44247L20.8921 6.5781C20.5861 6.43361 20.3906 6.13612 20.3906 5.80464C20.3906 5.47316 20.5776 5.16717 20.8836 5.02268L23.374 3.85823C23.9095 3.60325 24.5299 3.60325 25.0654 3.85823L31.1001 6.6291C31.4231 6.78209 31.5676 7.16457 31.4231 7.48756C31.2786 7.81054 30.8876 7.95504 30.5646 7.81054L24.5299 5.03968C24.3429 4.95468 24.1219 4.95468 23.935 5.03968L22.303 5.80464L27.6408 8.26952C27.9638 8.42251 28.1083 8.805 27.9553 9.13648C27.8448 9.37447 27.6068 9.51046 27.3688 9.51046V9.50196Z" fill="#2D3E52"/>
<path fill-rule="evenodd" clip-rule="evenodd" d="M12.2041 8.40648C12.2041 8.75854 11.9187 9.04395 11.5666 9.04395L4.34198 9.04394C3.98991 9.04394 3.70451 8.75854 3.70451 8.40648C3.70451 8.05441 3.98991 7.76901 4.34198 7.76901L11.5666 7.76901C11.9187 7.76901 12.2041 8.05441 12.2041 8.40648Z" fill="#2D3E52"/>
<path fill-rule="evenodd" clip-rule="evenodd" d="M12.2041 16.0559C12.2041 16.408 11.9187 16.6934 11.5666 16.6934L0.94214 16.6934C0.590075 16.6934 0.30467 16.408 0.30467 16.0559C0.30467 15.7038 0.590076 15.4184 0.94214 15.4184L11.5666 15.4184C11.9187 15.4184 12.2041 15.7038 12.2041 16.0559Z" fill="#2D3E52"/>
<path fill-rule="evenodd" clip-rule="evenodd" d="M12.2041 12.2317C12.2041 12.5837 11.9187 12.8691 11.5666 12.8691L7.74181 12.8691C7.38975 12.8691 7.10435 12.5837 7.10435 12.2317C7.10435 11.8796 7.38975 11.5942 7.74181 11.5942L11.5666 11.5942C11.9187 11.5942 12.2041 11.8796 12.2041 12.2317Z" fill="#2D3E52"/>
<path fill-rule="evenodd" clip-rule="evenodd" d="M5.8291 12.2317C5.8291 12.5837 5.5437 12.8691 5.19163 12.8691H4.76665C4.41459 12.8691 4.12918 12.5837 4.12918 12.2317C4.12918 11.8796 4.41459 11.5942 4.76665 11.5942H5.19163C5.5437 11.5942 5.8291 11.8796 5.8291 12.2317Z" fill="#2D3E52"/>
</svg>
