<svg width="72" height="72" viewBox="0 0 72 72" fill="none" xmlns="http://www.w3.org/2000/svg">
<rect x="1" y="1" width="70" height="70" rx="30" fill="#FCFCFC" stroke="#F4F4F4"/>
<path d="M25.0625 33.7959C25.0625 32.3462 26.2378 31.1709 27.6875 31.1709H30.5396C31.9894 31.1709 33.1646 32.3462 33.1646 33.7959V43.1297C33.1646 44.5795 31.9894 45.7547 30.5396 45.7547H27.6875C26.2378 45.7547 25.0625 44.5795 25.0625 43.1297V33.7959Z" fill="#99B3D1"/>
<path fill-rule="evenodd" clip-rule="evenodd" d="M24.4062 33.7959C24.4062 31.9837 25.8753 30.5146 27.6875 30.5146H30.5396C32.3518 30.5146 33.8209 31.9837 33.8209 33.7959V43.1297C33.8209 44.9419 32.3518 46.411 30.5396 46.411H27.6875C25.8753 46.411 24.4062 44.9419 24.4062 43.1297V33.7959ZM27.6875 31.8271C26.6002 31.8271 25.7188 32.7086 25.7188 33.7959V43.1297C25.7188 44.217 26.6002 45.0985 27.6875 45.0985H30.5396C31.6269 45.0985 32.5084 44.217 32.5084 43.1297V33.7959C32.5084 32.7086 31.6269 31.8271 30.5396 31.8271H27.6875Z" fill="#59636F"/>
<path fill-rule="evenodd" clip-rule="evenodd" d="M37.4122 24.6891C36.4959 24.6891 35.6725 25.2485 35.3349 26.1004L33.165 31.5758V33.6013H33.1721C33.1674 33.6656 33.165 33.7305 33.165 33.7959V43.1296C33.165 44.5794 34.3403 45.7546 35.79 45.7546H41.6886C44.5881 45.7546 46.9386 43.4041 46.9386 40.5047V36.4209C46.9386 33.5214 44.5881 31.1709 41.6886 31.1709H39.6467V26.9236C39.6467 25.6895 38.6463 24.6891 37.4122 24.6891Z" fill="white"/>
<path fill-rule="evenodd" clip-rule="evenodd" d="M37.4122 25.3453C36.765 25.3453 36.1834 25.7405 35.945 26.3421L33.8213 31.7012V33.5051C33.8283 33.5525 33.8302 33.6008 33.8266 33.6494C33.8231 33.6977 33.8213 33.7466 33.8213 33.796V43.1298C33.8213 44.2171 34.7027 45.0986 35.79 45.0986H41.6886C44.2257 45.0986 46.2824 43.0419 46.2824 40.5048V36.421C46.2824 33.8839 44.2257 31.8272 41.6886 31.8272H39.6467C39.2843 31.8272 38.9905 31.5334 38.9905 31.171V26.9236C38.9905 26.0519 38.2839 25.3453 37.4122 25.3453ZM32.5115 33.6615C32.5097 33.6417 32.5088 33.6217 32.5088 33.6014V31.5759C32.5088 31.4931 32.5245 31.4111 32.5549 31.3341L34.7248 25.8586C35.1615 24.7566 36.2268 24.0328 37.4122 24.0328C39.0088 24.0328 40.303 25.3271 40.303 26.9236V30.5147H41.6886C44.9506 30.5147 47.5949 33.1591 47.5949 36.421V40.5048C47.5949 43.7668 44.9506 46.4111 41.6886 46.4111H35.79C33.9779 46.4111 32.5088 44.942 32.5088 43.1298V33.796C32.5088 33.751 32.5097 33.7062 32.5115 33.6615Z" fill="#59636F"/>
</svg>
