<svg width="72" height="72" viewBox="0 0 72 72" fill="none" xmlns="http://www.w3.org/2000/svg">
<rect x="1" y="1" width="70" height="70" rx="30" fill="#FCFCFC" stroke="#F4F4F4"/>
<path d="M28.125 41.25L28.5625 29.875L39.0625 34.25V47.375L29.875 43.4375L28.125 41.25Z" fill="#FFECC8"/>
<path d="M50.875 41.95L50.42 29.4375L39.5 34.25V48.6875L49.055 44.3563L50.875 41.95Z" fill="#EDC57A"/>
<path d="M43.4375 32.9375L37.75 29.875L40.375 28.125L47.375 31.1875V39.0625L45.625 38.1875L43.875 40.375L43.4375 32.9375Z" fill="#95E6A8"/>
<path d="M43.7348 41.3376C43.6561 41.3376 43.5773 41.3201 43.5073 41.2938C43.2448 41.1976 43.0698 40.9438 43.0698 40.6638V32.7363C43.0698 32.4738 43.2186 32.2376 43.4548 32.1326L47.0686 30.4438C47.2786 30.3476 47.5148 30.3651 47.7073 30.4876C47.8998 30.6101 48.0136 30.8201 48.0136 31.0563V38.9838C48.0136 39.2026 47.8998 39.4126 47.7161 39.5351C47.5323 39.6576 47.2961 39.6838 47.0948 39.5963L45.9223 39.1238L44.2423 41.1013C44.1111 41.2501 43.9273 41.3376 43.7348 41.3376ZM44.4086 33.1651V38.8438L45.2223 37.8901C45.4061 37.6713 45.7211 37.5926 45.9836 37.7063L46.6836 37.9863V32.1063L44.4086 33.1738V33.1651Z" fill="#59636F"/>
<path d="M39.4993 48.4339C38.7205 48.4339 37.9418 48.2676 37.2155 47.9264L30.1018 44.5926C28.4743 43.8314 27.4155 42.1689 27.4155 40.3664V30.7851C27.4155 29.6651 28.0718 28.6414 29.0868 28.1776L37.5655 24.3101C38.7993 23.7501 40.208 23.7501 41.4418 24.3101L49.9205 28.1776C50.9355 28.6414 51.5918 29.6651 51.5918 30.7851V40.3664C51.5918 42.1689 50.5418 43.8226 48.9055 44.5926L41.7918 47.9264C41.0655 48.2676 40.2868 48.4339 39.508 48.4339H39.4993ZM38.1168 25.5264L29.638 29.3939C29.0955 29.6389 28.7455 30.1814 28.7455 30.7764V40.3576C28.7455 41.6439 29.498 42.8251 30.6618 43.3676L37.7755 46.7014C38.8693 47.2089 40.1205 47.2089 41.2143 46.7014L48.328 43.3676C49.4918 42.8251 50.2443 41.6439 50.2443 40.3576V30.7851C50.2443 30.1901 49.8943 29.6476 49.3518 29.4026L40.873 25.5351C39.998 25.1326 38.9918 25.1326 38.108 25.5351L38.1168 25.5264Z" fill="#59636F"/>
<path d="M39.5001 35.3961C39.4039 35.3961 39.3076 35.3786 39.2201 35.3349L28.7989 30.4524C28.4664 30.2949 28.3176 29.9011 28.4751 29.5599C28.6326 29.2274 29.0351 29.0786 29.3676 29.2361L39.7889 34.1186C40.1214 34.2761 40.2701 34.6699 40.1126 35.0111C39.9989 35.2561 39.7539 35.3961 39.5089 35.3961H39.5001Z" fill="#59636F"/>
<path d="M39.4998 35.3962C39.246 35.3962 39.0098 35.2562 38.896 35.0112C38.7385 34.6787 38.8873 34.2762 39.2198 34.1187L49.6935 29.21C50.026 29.0525 50.4285 29.2012 50.586 29.5337C50.7435 29.8662 50.5948 30.2687 50.2623 30.4262L39.7885 35.335C39.701 35.3787 39.596 35.3962 39.5085 35.3962H39.4998Z" fill="#59636F"/>
<path d="M39.4999 47.8211C39.1324 47.8211 38.8262 47.5236 38.8262 47.1561V34.7224C38.8262 34.3549 39.1237 34.0574 39.4999 34.0574C39.8762 34.0574 40.1649 34.3549 40.1649 34.7224V47.1561C40.1649 47.5236 39.8674 47.8211 39.4999 47.8211Z" fill="#59636F"/>
<path d="M43.7355 33.4098C43.6393 33.4098 43.543 33.3923 43.4555 33.3486L37.068 30.3998C36.753 30.2511 36.5518 29.9448 36.5518 29.6036C36.5518 29.2623 36.7443 28.9473 37.0593 28.7986L39.623 27.5998C40.1743 27.3373 40.813 27.3373 41.3643 27.5998L47.5768 30.4523C47.9093 30.6098 48.058 31.0036 47.9093 31.3361C47.7605 31.6686 47.358 31.8173 47.0255 31.6686L40.813 28.8161C40.6205 28.7286 40.393 28.7286 40.2005 28.8161L38.5205 29.6036L44.0155 32.1411C44.348 32.2986 44.4968 32.6923 44.3393 33.0336C44.2255 33.2786 43.9805 33.4186 43.7355 33.4186V33.4098Z" fill="#59636F"/>
<path fill-rule="evenodd" clip-rule="evenodd" d="M28.125 32.2812C28.125 32.6437 27.8312 32.9375 27.4688 32.9375L20.0312 32.9375C19.6688 32.9375 19.375 32.6437 19.375 32.2812C19.375 31.9188 19.6688 31.625 20.0313 31.625L27.4688 31.625C27.8312 31.625 28.125 31.9188 28.125 32.2812Z" fill="#59636F"/>
<path fill-rule="evenodd" clip-rule="evenodd" d="M28.125 40.1562C28.125 40.5187 27.8312 40.8125 27.4688 40.8125L16.5312 40.8125C16.1688 40.8125 15.875 40.5187 15.875 40.1562C15.875 39.7938 16.1688 39.5 16.5313 39.5L27.4688 39.5C27.8312 39.5 28.125 39.7938 28.125 40.1562Z" fill="#59636F"/>
<path fill-rule="evenodd" clip-rule="evenodd" d="M28.125 36.2188C28.125 36.5812 27.8312 36.875 27.4688 36.875L23.5312 36.875C23.1688 36.875 22.875 36.5812 22.875 36.2187C22.875 35.8563 23.1688 35.5625 23.5313 35.5625L27.4688 35.5625C27.8312 35.5625 28.125 35.8563 28.125 36.2188Z" fill="#59636F"/>
<path fill-rule="evenodd" clip-rule="evenodd" d="M21.5625 36.2188C21.5625 36.5812 21.2687 36.875 20.9062 36.875H20.4688C20.1063 36.875 19.8125 36.5812 19.8125 36.2188C19.8125 35.8563 20.1063 35.5625 20.4688 35.5625H20.9062C21.2687 35.5625 21.5625 35.8563 21.5625 36.2188Z" fill="#59636F"/>
</svg>
