<svg width="72" height="72" viewBox="0 0 72 72" fill="none" xmlns="http://www.w3.org/2000/svg">
<rect x="1" y="1" width="70" height="70" rx="30" fill="#FCFCFC" stroke="#F4F4F4"/>
<path d="M35.2422 24.2051C35.578 23.6172 36.4258 23.6172 36.7617 24.2051L39.7367 29.4131C39.8617 29.632 40.0751 29.7863 40.3221 29.8365L46.219 31.0354C46.8866 31.1712 47.1498 31.9842 46.6885 32.4854L42.6339 36.8908C42.462 37.0775 42.3797 37.3298 42.4083 37.582L43.0821 43.5188C43.1586 44.1932 42.4715 44.6942 41.8528 44.4151L36.3618 41.9376C36.133 41.8344 35.8709 41.8344 35.6421 41.9376L30.1511 44.4151C29.5324 44.6942 28.8453 44.1932 28.9218 43.5188L29.5956 37.582C29.6242 37.3298 29.5419 37.0775 29.37 36.8908L25.3154 32.4854C24.8541 31.9842 25.1173 31.1712 25.7849 31.0354L31.6818 29.8365C31.9288 29.7863 32.1422 29.632 32.2672 29.4131L35.2422 24.2051Z" fill="#FCF8D8"/>
<path fill-rule="evenodd" clip-rule="evenodd" d="M34.6719 23.8796C35.2597 22.8507 36.7434 22.8507 37.3311 23.8796L40.3061 29.0876C40.3374 29.1423 40.3907 29.1809 40.4525 29.1934L46.3493 30.3923C47.5177 30.6299 47.9783 32.0526 47.1709 32.9299L43.1164 37.3352C43.0734 37.3819 43.0528 37.4449 43.06 37.508L43.7337 43.4448C43.8677 44.625 42.6652 45.5018 41.5825 45.0133L36.0915 42.5358C36.0343 42.51 35.9688 42.51 35.9116 42.5358L30.4206 45.0133C29.3379 45.5018 28.1354 44.625 28.2693 43.4448L28.9431 37.508C28.9503 37.4449 28.9297 37.3819 28.8867 37.3352L24.8322 32.9299C24.0247 32.0526 24.4854 30.6299 25.6538 30.3923L31.5506 29.1934C31.6123 29.1809 31.6657 29.1423 31.6969 29.0876L34.6719 23.8796ZM36.1915 24.5307C36.1075 24.3837 35.8956 24.3837 35.8116 24.5307L32.8366 29.7386C32.6178 30.1217 32.2444 30.3917 31.8121 30.4796L25.9153 31.6785C25.7483 31.7125 25.6825 31.9157 25.7979 32.041L29.8524 36.4464C30.1533 36.7732 30.2973 37.2146 30.2472 37.656L29.5735 43.5928C29.5543 43.7614 29.7261 43.8867 29.8808 43.8169L35.3718 41.3394C35.7722 41.1587 36.2309 41.1587 36.6313 41.3394L42.1223 43.8169C42.277 43.8867 42.4487 43.7614 42.4296 43.5928L41.7558 37.656C41.7057 37.2146 41.8498 36.7732 42.1506 36.4464L46.2052 32.041C46.3205 31.9157 46.2547 31.7125 46.0878 31.6785L40.191 30.4796C39.7587 30.3917 39.3853 30.1217 39.1665 29.7386L36.1915 24.5307Z" fill="#59636F"/>
<path fill-rule="evenodd" clip-rule="evenodd" d="M42.6737 26.5687C42.3831 26.3522 42.3245 25.9422 42.5429 25.6529L43.418 24.4941C43.6364 24.2049 44.0491 24.1459 44.3397 24.3624C44.6304 24.5789 44.689 24.9889 44.4706 25.2782L43.5955 26.437C43.3771 26.7262 42.9644 26.7852 42.6737 26.5687Z" fill="#59636F"/>
<path fill-rule="evenodd" clip-rule="evenodd" d="M29.3263 26.5687C29.6169 26.3522 29.6755 25.9422 29.4571 25.6529L28.582 24.4941C28.3636 24.2049 27.9509 24.1459 27.6603 24.3624C27.3696 24.5789 27.311 24.9889 27.5294 25.2782L28.4045 26.437C28.6229 26.7262 29.0356 26.7852 29.3263 26.5687Z" fill="#59636F"/>
<path fill-rule="evenodd" clip-rule="evenodd" d="M25.7115 38.8137C25.8344 39.1546 25.6573 39.5295 25.3158 39.651L23.9383 40.141C23.5969 40.2625 23.2204 40.0846 23.0974 39.7436C22.9745 39.4027 23.1516 39.0278 23.4931 38.9064L24.8705 38.4163C25.212 38.2948 25.5885 38.4728 25.7115 38.8137Z" fill="#59636F"/>
<path fill-rule="evenodd" clip-rule="evenodd" d="M46.289 38.8137C46.1661 39.1546 46.3432 39.5295 46.6847 39.651L48.0621 40.141C48.4036 40.2625 48.7801 40.0846 48.9031 39.7436C49.026 39.4027 48.8489 39.0278 48.5074 38.9064L47.13 38.4163C46.7885 38.2948 46.412 38.4728 46.289 38.8137Z" fill="#59636F"/>
<path fill-rule="evenodd" clip-rule="evenodd" d="M35.8862 46.3672C36.2487 46.3672 36.5425 46.661 36.5425 47.0234L36.5425 48.4687C36.5425 48.8312 36.2487 49.125 35.8862 49.125C35.5238 49.125 35.23 48.8312 35.23 48.4687L35.23 47.0234C35.23 46.661 35.5238 46.3672 35.8862 46.3672Z" fill="#59636F"/>
</svg>
